<svg width="24" height="24" viewBox="0 0 24 24" fill="none" xmlns="http://www.w3.org/2000/svg">
<path fill-rule="evenodd" clip-rule="evenodd" d="M0 3C0 1.34315 1.34315 0 3 0H21C22.6569 0 24 1.34315 24 3V17C24 18.6569 22.6569 20 21 20H5.67739C5.48033 20 5.28766 20.0582 5.12358 20.1674L1.55381 22.5417C0.889185 22.9837 0 22.5073 0 21.709V17V15.5937V3ZM11 5C11 4.44771 11.4477 4 12 4C12.5523 4 13 4.44772 13 5V8C13 8.55228 13.4477 9 14 9H17C17.5523 9 18 9.44771 18 10C18 10.5523 17.5523 11 17 11H14C13.4477 11 13 11.4477 13 12V15C13 15.5523 12.5523 16 12 16C11.4477 16 11 15.5523 11 15V12C11 11.4477 10.5523 11 10 11H7C6.44771 11 6 10.5523 6 10C6 9.44771 6.44772 9 7 9H10C10.5523 9 11 8.55228 11 8V5Z" fill="#F8F8F8"/>
</svg>
