<svg width="24" height="24" viewBox="0 0 24 24" fill="none" xmlns="http://www.w3.org/2000/svg">
<path fill-rule="evenodd" clip-rule="evenodd" d="M18 12C17.4477 12 17 12.4477 17 13V17H13C12.4477 17 12 17.4477 12 18C12 18.5523 12.4477 19 13 19H17V23C17 23.5523 17.4477 24 18 24C18.5523 24 19 23.5523 19 23V19H23C23.5523 19 24 18.5523 24 18C24 17.4477 23.5523 17 23 17H19V13C19 12.4477 18.5523 12 18 12Z" fill="#040404"/>
<path fill-rule="evenodd" clip-rule="evenodd" d="M10.7279 4.8995C11.3818 5.55337 11.8532 6.32061 12.1421 7.13795C12.4311 6.32061 12.9025 5.55337 13.5564 4.8995C15.8995 2.55635 19.6985 2.55635 22.0416 4.8995C24.3848 7.24264 24.3848 11.0416 22.0416 13.3848L20 15.4264V12C20 11.4477 19.5523 11 19 11H17C16.4477 11 16 11.4477 16 12V16H12C11.4477 16 11 16.4477 11 17V19C11 19.5523 11.4477 20 12 20H15.4264L12.8493 22.5772C12.4587 22.9677 11.8256 22.9677 11.435 22.5772L6.48529 17.6274L2.24265 13.3848C-0.100496 11.0416 -0.100496 7.24264 2.24265 4.8995C4.5858 2.55635 8.38479 2.55635 10.7279 4.8995Z" fill="#040404"/>
</svg>
