<svg width="24" height="24" viewBox="0 0 24 24" fill="none" xmlns="http://www.w3.org/2000/svg">
<mask id="path-1-outside-1_94_30" maskUnits="userSpaceOnUse" x="4" y="0" width="20" height="20" fill="black">
<rect fill="white" x="4" width="20" height="20"/>
<path d="M6 3C6 2.44772 6.44772 2 7 2H21C21.5523 2 22 2.44772 22 3V17C22 17.5523 21.5523 18 21 18H7C6.44772 18 6 17.5523 6 17V3Z"/>
</mask>
<path d="M7 4H21V0H7V4ZM20 3V17H24V3H20ZM21 16H7V20H21V16ZM8 17V3H4V17H8ZM7 16C7.55228 16 8 16.4477 8 17H4C4 18.6569 5.34315 20 7 20V16ZM20 17C20 16.4477 20.4477 16 21 16V20C22.6569 20 24 18.6569 24 17H20ZM21 4C20.4477 4 20 3.55228 20 3H24C24 1.34315 22.6569 0 21 0V4ZM7 0C5.34315 0 4 1.34315 4 3H8C8 3.55228 7.55228 4 7 4V0Z" fill="#F8F8F8" mask="url(#path-1-outside-1_94_30)"/>
<path fill-rule="evenodd" clip-rule="evenodd" d="M2.22222 5C2.22222 4.44772 1.77451 4 1.22222 4H1C0.447715 4 0 4.44772 0 5V23C0 23.5523 0.447716 24 1 24H19C19.5523 24 20 23.5523 20 23V22.7778C20 22.2255 19.5523 21.7778 19 21.7778H3.22222C2.66994 21.7778 2.22222 21.3301 2.22222 20.7778V5Z" fill="#F8F8F8"/>
<path d="M8 10C8 9.44772 8.44772 9 9 9H19C19.5523 9 20 9.44772 20 10V10C20 10.5523 19.5523 11 19 11H9C8.44772 11 8 10.5523 8 10V10Z" fill="#F8F8F8"/>
<path d="M13 5C13 4.44772 13.4477 4 14 4V4C14.5523 4 15 4.44772 15 5V15C15 15.5523 14.5523 16 14 16V16C13.4477 16 13 15.5523 13 15V5Z" fill="#F8F8F8"/>
</svg>
