<svg width="24" height="24" viewBox="0 0 24 24" fill="none" xmlns="http://www.w3.org/2000/svg">
<path fill-rule="evenodd" clip-rule="evenodd" d="M6.66665 3C6.66665 2.44772 7.11436 2 7.66665 2H12.3333C12.8856 2 13.3333 2.44772 13.3333 3V6C13.3333 6.55228 13.781 7 14.3333 7H15.6666C16.2189 7 16.6666 6.55228 16.6666 6V3C16.6666 2.44772 17.1144 2 17.6666 2H19C19.5523 2 20 2.44772 20 3V19C20 19.5523 19.5523 20 19 20H1C0.447715 20 0 19.5523 0 19V3C0 2.44772 0.447715 2 1 2H2.33331C2.8856 2 3.33331 2.44772 3.33331 3V6C3.33331 6.55228 3.78103 7 4.33331 7H5.66665C6.21893 7 6.66665 6.55228 6.66665 6V3ZM7.41421 13.5355C7.80474 13.9261 8.4379 13.9261 8.82843 13.5355L13.0711 9.29289C13.4616 8.90237 14.0948 8.90237 14.4853 9.29289C14.8758 9.68342 14.8758 10.3166 14.4853 10.7071L8.82901 16.3634L8.82843 16.364C8.48672 16.7057 7.95924 16.7484 7.57109 16.4921C7.51564 16.4555 7.46303 16.4128 7.41421 16.364L5.29289 14.2426C4.90237 13.8521 4.90237 13.219 5.29289 12.8284C5.68342 12.4379 6.31658 12.4379 6.70711 12.8284L7.41421 13.5355Z" fill="#040404"/>
<rect x="4" width="2" height="6" rx="1" fill="#040404"/>
<rect x="14" width="2" height="6" rx="1" fill="#040404"/>
<path fill-rule="evenodd" clip-rule="evenodd" d="M23 4C22.4477 4 22 4.44772 22 5V21C22 21.5523 21.5523 22 21 22H3C2.44772 22 2 22.4477 2 23C2 23.5523 2.44772 24 3 24H23C23.5523 24 24 23.5523 24 23V5C24 4.44772 23.5523 4 23 4Z" fill="#040404"/>
</svg>
