<svg width="24" height="24" viewBox="0 0 24 24" fill="none" xmlns="http://www.w3.org/2000/svg">
<g clip-path="url(#clip0_155_2)">
<path fill-rule="evenodd" clip-rule="evenodd" d="M6.98085 9.44531C7.95716 8.46899 7.95716 6.88608 6.98085 5.90977L6.27375 5.20267C4.90691 3.83584 2.63028 3.82042 1.70506 5.5176C1.6425 5.63236 1.58196 5.74798 1.5235 5.86439C0.949882 7.00657 0.587054 8.20276 0.455733 9.38466C0.324411 10.5666 0.427167 11.711 0.758134 12.7527C1.0891 13.7944 1.64179 14.7128 2.38464 15.4557L2.38466 15.4557L8.0415 21.1126C8.78437 21.8554 9.70286 22.4081 10.7445 22.7391C11.7862 23.0701 12.9307 23.1728 14.1126 23.0415C15.2945 22.9102 16.4907 22.5473 17.6328 21.9737C17.7492 21.9153 17.8649 21.8547 17.9796 21.7922C19.6768 20.8669 19.6614 18.5903 18.2946 17.2235L17.5874 16.5164C16.6111 15.5401 15.0282 15.5401 14.0519 16.5164V16.5164C13.0756 17.4927 11.4927 17.4927 10.5164 16.5164L6.98085 12.9808C6.00454 12.0045 6.00454 10.4216 6.98085 9.44531V9.44531Z" fill="#F8F8F8"/>
<path fill-rule="evenodd" clip-rule="evenodd" d="M16.5922 0.875026C15.4448 0.399758 14.2325 0.106265 12.9989 0.00322286C12.4485 -0.0427481 12 0.409296 12 0.96158V0.96158C12 1.51387 12.449 1.95633 12.9986 2.01082C17.7241 2.47933 21.4823 6.23744 21.9508 10.963C22.0053 11.5126 22.4477 11.9616 23 11.9616V11.9616C23.5523 11.9616 24.0043 11.5131 23.9584 10.9627C23.8553 9.7291 23.5618 8.51678 23.0866 7.36938C22.4835 5.91347 21.5996 4.5906 20.4853 3.4763C19.371 2.362 18.0481 1.47808 16.5922 0.875026Z" fill="#F8F8F8"/>
<path fill-rule="evenodd" clip-rule="evenodd" d="M15.0615 4.55347C14.3996 4.2793 13.7053 4.09587 12.9974 4.00693C12.4494 3.93807 12 4.39222 12 4.94451V4.94451C12 5.49679 12.4511 5.93577 12.9958 6.02676C15.5117 6.44701 17.4975 8.43281 17.9177 10.9487C18.0087 11.4934 18.4477 11.9445 19 11.9445V11.9445C19.5523 11.9445 20.0064 11.4951 19.9376 10.9471C19.8486 10.2392 19.6652 9.54493 19.391 8.88304C18.989 7.91243 18.3997 7.03052 17.6569 6.28765C16.914 5.54478 16.0321 4.95551 15.0615 4.55347Z" fill="#F8F8F8"/>
</g>
<defs>
<clipPath id="clip0_155_2">
<rect width="24" height="24" fill="white"/>
</clipPath>
</defs>
</svg>
