<svg width="24" height="24" viewBox="0 0 24 24" fill="none" xmlns="http://www.w3.org/2000/svg">
<path fill-rule="evenodd" clip-rule="evenodd" d="M6 2C4.89543 2 4 2.89543 4 4V16C4 17.1046 4.89543 18 6 18H17.2544C17.7353 18 18.2001 18.1733 18.5637 18.4881L20.6907 20.3302C21.986 21.452 24 20.5319 24 18.8183V18V12.8038V4C24 2.89543 23.1046 2 22 2H6ZM9 5C8.44772 5 8 5.44772 8 6C8 6.55228 8.44771 7 9 7H19C19.5523 7 20 6.55228 20 6C20 5.44772 19.5523 5 19 5H9ZM8 10C8 9.44772 8.44772 9 9 9H19C19.5523 9 20 9.44772 20 10C20 10.5523 19.5523 11 19 11H9C8.44771 11 8 10.5523 8 10ZM9 13C8.44772 13 8 13.4477 8 14C8 14.5523 8.44771 15 9 15H19C19.5523 15 20 14.5523 20 14C20 13.4477 19.5523 13 19 13H9Z" fill="#F8F8F8"/>
<path fill-rule="evenodd" clip-rule="evenodd" d="M2 10C2 9.44771 1.55228 9 1 9V9C0.447715 9 0 9.44772 0 10V17.5359V22V22.7321C0 23.5019 0.833333 23.983 1.5 23.5981L4.0359 22.134C4.18792 22.0462 4.36036 22 4.5359 22H17C17.5523 22 18 21.5523 18 21V21C18 20.4477 17.5523 20 17 20H3C2.44772 20 2 19.5523 2 19V10Z" fill="#F8F8F8"/>
</svg>
