<svg width="24" height="24" viewBox="0 0 24 24" fill="none" xmlns="http://www.w3.org/2000/svg">
<path fill-rule="evenodd" clip-rule="evenodd" d="M12 23C18.0751 23 23 18.0751 23 12C23 5.92487 18.0751 1 12 1C5.92487 1 1 5.92487 1 12C1 18.0751 5.92487 23 12 23ZM11 4C11 3.44771 11.4477 3 12 3C12.5523 3 13 3.44771 13 4V11.5858L16.2426 14.8284C16.6332 15.2189 16.6332 15.8521 16.2426 16.2426C15.8521 16.6332 15.219 16.6332 14.8284 16.2426L11.2951 12.7093C11.2878 12.702 11.2806 12.6946 11.2734 12.6871C11.1894 12.5983 11.1247 12.4979 11.0794 12.3912C11.0283 12.271 11 12.1388 11 12V4Z" fill="#040404"/>
</svg>
