<svg width="24" height="24" viewBox="0 0 24 24" fill="none" xmlns="http://www.w3.org/2000/svg">
<mask id="path-1-outside-1_15_57" maskUnits="userSpaceOnUse" x="0.585787" y="-1.41421" width="22.6274" height="22.6274" fill="black">
<rect fill="white" x="0.585787" y="-1.41421" width="22.6274" height="22.6274"/>
<path fill-rule="evenodd" clip-rule="evenodd" d="M21.0919 6.36396C21.4824 5.97344 21.4824 5.34027 21.0919 4.94975C20.7014 4.55922 20.0682 4.55922 19.6777 4.94975L9.07107 15.5563C8.29002 16.3374 7.02369 16.3374 6.24264 15.5563L4.12132 13.435C3.7308 13.0445 3.09763 13.0445 2.70711 13.435C2.31658 13.8256 2.31658 14.4587 2.70711 14.8492L6.24264 18.3848C7.02369 19.1658 8.29002 19.1658 9.07107 18.3848L21.0919 6.36396Z"/>
</mask>
<path fill-rule="evenodd" clip-rule="evenodd" d="M21.0919 6.36396C21.4824 5.97344 21.4824 5.34027 21.0919 4.94975C20.7014 4.55922 20.0682 4.55922 19.6777 4.94975L9.07107 15.5563C8.29002 16.3374 7.02369 16.3374 6.24264 15.5563L4.12132 13.435C3.7308 13.0445 3.09763 13.0445 2.70711 13.435C2.31658 13.8256 2.31658 14.4587 2.70711 14.8492L6.24264 18.3848C7.02369 19.1658 8.29002 19.1658 9.07107 18.3848L21.0919 6.36396Z" fill="#040404"/>
<path d="M9.77817 16.2635L20.3848 5.65685L18.9706 4.24264L8.36396 14.8492L9.77817 16.2635ZM3.41421 14.1421L5.53553 16.2635L6.94975 14.8492L4.82843 12.7279L3.41421 14.1421ZM6.94975 17.6777L3.41421 14.1421L2 15.5563L5.53553 19.0919L6.94975 17.6777ZM20.3848 5.65685L8.36396 17.6777L9.77817 19.0919L21.799 7.07107L20.3848 5.65685ZM5.53553 19.0919C6.70711 20.2635 8.6066 20.2635 9.77817 19.0919L8.36396 17.6777C7.97344 18.0682 7.34027 18.0682 6.94975 17.6777L5.53553 19.0919ZM2 12.7279C1.21895 13.509 1.21895 14.7753 2 15.5563L3.41421 14.1421L3.41421 14.1421L2 12.7279ZM4.82843 12.7279C4.04738 11.9469 2.78105 11.9469 2 12.7279L3.41421 14.1421L4.82843 12.7279ZM8.36396 14.8492C7.97344 15.2398 7.34027 15.2398 6.94975 14.8492L5.53553 16.2635C6.70711 17.435 8.6066 17.435 9.77817 16.2635L8.36396 14.8492ZM20.3848 5.65685L21.799 7.07107C22.58 6.29002 22.58 5.02369 21.799 4.24264L20.3848 5.65685ZM21.799 4.24264C21.0179 3.46159 19.7516 3.46159 18.9706 4.24264L20.3848 5.65685L20.3848 5.65685L21.799 4.24264Z" fill="#040404" mask="url(#path-1-outside-1_15_57)"/>
</svg>
