<svg width="34" height="34" viewBox="0 0 34 34" fill="none" xmlns="http://www.w3.org/2000/svg">
<path fill-rule="evenodd" clip-rule="evenodd" d="M30.1539 21.8042C28.0134 23.7876 25.1483 25 22 25C15.3726 25 10 19.6274 10 13C10 8.89983 12.0564 5.27994 15.194 3.11541C8.31509 4.00135 3 9.87997 3 17C3 24.732 9.26801 31 17 31C23.0442 31 28.1937 27.1698 30.1539 21.8042Z" fill="#040404"/>
<path fill-rule="evenodd" clip-rule="evenodd" d="M16 9C16 11.2091 14.2091 13 12 13C14.2091 13 16 14.7909 16 17C16 14.7909 17.7909 13 20 13C17.7909 13 16 11.2091 16 9Z" fill="#040404"/>
<path fill-rule="evenodd" clip-rule="evenodd" d="M25 5C25 7.20914 23.2091 9 21 9C23.2091 9 25 10.7909 25 13C25 10.7909 26.7909 9 29 9C26.7909 9 25 7.20914 25 5Z" fill="#040404"/>
<path fill-rule="evenodd" clip-rule="evenodd" d="M23 14C23 16.2091 21.2091 18 19 18C21.2091 18 23 19.7909 23 22C23 19.7909 24.7909 18 27 18C24.7909 18 23 16.2091 23 14Z" fill="#040404"/>
</svg>
