<svg width="24" height="24" viewBox="0 0 24 24" fill="none" xmlns="http://www.w3.org/2000/svg">
<path fill-rule="evenodd" clip-rule="evenodd" d="M10 2.4C10 2.17909 10.1791 2 10.4 2H13.6C13.8209 2 14 2.17909 14 2.4V4V4.4V5C14 5.55228 14.4477 6 15 6C15.5523 6 16 5.55228 16 5V4V2C16 0.895431 15.1046 0 14 0H10C8.89543 0 8 0.895431 8 2V4V5C8 5.55228 8.44772 6 9 6C9.55228 6 10 5.55228 10 5V4.4V4V2.4Z" fill="#F8F8F8"/>
<rect x="3.5" y="4.5" width="17" height="1" rx="0.5" stroke="#F8F8F8"/>
<path fill-rule="evenodd" clip-rule="evenodd" d="M6 7C4.89543 7 4 7.89543 4 9V22C4 23.1046 4.89543 24 6 24H18C19.1046 24 20 23.1046 20 22V9C20 7.89543 19.1046 7 18 7H6ZM7 11C7 10.4477 7.44772 10 8 10C8.55228 10 9 10.4477 9 11V19C9 19.5523 8.55228 20 8 20C7.44772 20 7 19.5523 7 19V11ZM11 12C11 11.4477 11.4477 11 12 11C12.5523 11 13 11.4477 13 12V20C13 20.5523 12.5523 21 12 21C11.4477 21 11 20.5523 11 20V12ZM16 10C15.4477 10 15 10.4477 15 11V19C15 19.5523 15.4477 20 16 20C16.5523 20 17 19.5523 17 19V11C17 10.4477 16.5523 10 16 10Z" fill="#F8F8F8"/>
</svg>
