<svg width="24" height="24" viewBox="0 0 24 24" fill="none" xmlns="http://www.w3.org/2000/svg">
<path fill-rule="evenodd" clip-rule="evenodd" d="M2.87975 19.6087C2.61916 20.3905 3.3629 21.1342 4.14466 20.8736L8.3873 19.4594C8.53458 19.4103 8.6684 19.3276 8.77818 19.2179L19.2179 8.77818C19.6084 8.38765 19.6084 7.75449 19.2179 7.36396L16.3894 4.53554C15.9989 4.14501 15.3657 4.14501 14.9752 4.53554L4.36861 15.1421C4.36861 15.1421 4.36861 15.1421 4.36861 15.1421C4.36861 15.1421 4.36861 15.1421 4.36861 15.1421L2.87975 19.6087ZM19.925 6.65686C20.3155 7.04738 20.9682 7.04991 21.2094 6.55309C21.4059 6.14848 21.5107 5.70097 21.5107 5.24264C21.5107 4.44699 21.1947 3.68393 20.6321 3.12132C20.0695 2.55871 19.3064 2.24264 18.5107 2.24264C18.0524 2.24264 17.6049 2.34752 17.2003 2.54399C16.7035 2.78522 16.706 3.4379 17.0965 3.82843L18.5107 5.24264L19.925 6.65686Z" fill="#040404"/>
</svg>
