<svg width="24" height="24" viewBox="0 0 24 24" fill="none" xmlns="http://www.w3.org/2000/svg">
<g clip-path="url(#clip0_155_6)">
<path fill-rule="evenodd" clip-rule="evenodd" d="M6.07107 14.069C5.9266 13.6603 5.6909 13.2767 5.36396 12.9497C4.19239 11.7782 2.29289 11.7782 1.12132 12.9497C-0.0502526 14.1213 -0.0502526 16.0208 1.12132 17.1924L3.24264 19.3137L5.36396 21.435C5.75449 21.8256 6.38765 21.8256 6.77817 21.435L11.0208 17.1924C12.1924 16.0208 12.1924 14.1213 11.0208 12.9497C9.84924 11.7782 7.94975 11.7782 6.77817 12.9497C6.45124 13.2767 6.21554 13.6603 6.07107 14.069Z" fill="#040404"/>
<path fill-rule="evenodd" clip-rule="evenodd" d="M12.6066 5.48528C13.4021 6.28074 13.8735 7.27755 14.0208 8.31165C14.1682 7.27755 14.6396 6.28074 15.435 5.48528C17.3877 3.53266 20.5535 3.53266 22.5061 5.48528C24.4587 7.4379 24.4587 10.6037 22.5061 12.5563L18.9706 16.0919L14.7279 20.3345C14.3374 20.725 13.7042 20.725 13.3137 20.3345L11.2719 18.2927C12.3159 17.5709 13 16.3653 13 15C13 12.7909 11.2091 11 9.00001 11C7.63467 11 6.42911 11.6841 5.70735 12.7282L5.53554 12.5563C3.58292 10.6037 3.58292 7.4379 5.53554 5.48528C7.48816 3.53266 10.654 3.53266 12.6066 5.48528Z" fill="#040404"/>
</g>
<defs>
<clipPath id="clip0_155_6">
<rect width="24" height="24" fill="white"/>
</clipPath>
</defs>
</svg>
