<svg width="24" height="24" viewBox="0 0 24 24" fill="none" xmlns="http://www.w3.org/2000/svg">
<circle cx="12" cy="12" r="11" stroke="#F8F8F8" stroke-width="2"/>
<path d="M17 12C17 15.1921 16.3509 18.0326 15.3482 20.0381C14.3156 22.1033 13.074 23 12 23C10.926 23 9.68442 22.1033 8.65179 20.0381C7.64906 18.0326 7 15.1921 7 12C7 8.80787 7.64906 5.96739 8.65179 3.96193C9.68442 1.89666 10.926 1 12 1C13.074 1 14.3156 1.89666 15.3482 3.96193C16.3509 5.96739 17 8.80787 17 12Z" stroke="#F8F8F8" stroke-width="2"/>
<path fill-rule="evenodd" clip-rule="evenodd" d="M1.60539 18H22.3946C22.7605 17.3676 23.0702 16.6986 23.3172 16H0.682823C0.929751 16.6986 1.23954 17.3676 1.60539 18ZM0.0410738 13C0.0138713 12.6703 0 12.3368 0 12C0 11.6632 0.0138713 11.3297 0.0410738 11H23.9589C23.9861 11.3297 24 11.6632 24 12C24 12.3368 23.9861 12.6703 23.9589 13H0.0410738ZM0.682823 8H23.3172C23.0702 7.30138 22.7605 6.63244 22.3946 6H1.60539C1.23954 6.63244 0.929751 7.30138 0.682823 8Z" fill="#F8F8F8"/>
</svg>
