<svg width="34" height="34" viewBox="0 0 34 34" fill="none" xmlns="http://www.w3.org/2000/svg">
<circle cx="17" cy="17" r="8" fill="#F8F8F8"/>
<path fill-rule="evenodd" clip-rule="evenodd" d="M17 0C16.4477 0 16 0.447715 16 1V6C16 6.55228 16.4477 7 17 7C17.5523 7 18 6.55228 18 6V1C18 0.447715 17.5523 0 17 0ZM28 16C27.4477 16 27 16.4477 27 17C27 17.5523 27.4477 18 28 18H33C33.5523 18 34 17.5523 34 17C34 16.4477 33.5523 16 33 16H28ZM0 17C0 16.4477 0.447715 16 1 16H6C6.55228 16 7 16.4477 7 17C7 17.5523 6.55228 18 6 18H1C0.447715 18 0 17.5523 0 17ZM17 27C16.4477 27 16 27.4477 16 28V33C16 33.5523 16.4477 34 17 34C17.5523 34 18 33.5523 18 33V28C18 27.4477 17.5523 27 17 27Z" fill="#F8F8F8"/>
<path fill-rule="evenodd" clip-rule="evenodd" d="M4.97918 4.97918C4.58866 5.36971 4.58866 6.00287 4.97918 6.3934L8.51472 9.92893C8.90524 10.3195 9.5384 10.3195 9.92893 9.92893C10.3195 9.53841 10.3195 8.90524 9.92893 8.51472L6.3934 4.97918C6.00287 4.58866 5.36971 4.58866 4.97918 4.97918ZM24.0711 8.51472C23.6805 8.90524 23.6805 9.53841 24.0711 9.92893C24.4616 10.3195 25.0948 10.3195 25.4853 9.92893L29.0208 6.3934C29.4113 6.00287 29.4113 5.36971 29.0208 4.97918C28.6303 4.58866 27.9971 4.58866 27.6066 4.97918L24.0711 8.51472ZM4.97918 29.0208C4.58866 28.6303 4.58866 27.9971 4.97918 27.6066L8.51472 24.0711C8.90524 23.6805 9.5384 23.6805 9.92893 24.0711C10.3195 24.4616 10.3195 25.0948 9.92893 25.4853L6.39339 29.0208C6.00287 29.4113 5.36971 29.4113 4.97918 29.0208ZM24.0711 24.0711C23.6805 24.4616 23.6805 25.0948 24.0711 25.4853L27.6066 29.0208C27.9971 29.4113 28.6303 29.4113 29.0208 29.0208C29.4113 28.6303 29.4113 27.9971 29.0208 27.6066L25.4853 24.0711C25.0948 23.6805 24.4616 23.6805 24.0711 24.0711Z" fill="#F8F8F8"/>
</svg>
