<svg width="32" height="32" viewBox="0 0 32 32" fill="none" xmlns="http://www.w3.org/2000/svg">
<path fill-rule="evenodd" clip-rule="evenodd" d="M6.17157 6.82843C6.92172 7.57857 7.93913 8 9 8H19C19.2626 8 19.5227 8.05173 19.7654 8.15224C20.008 8.25275 20.2285 8.40007 20.4142 8.58579C20.5999 8.7715 20.7472 8.99198 20.8478 9.23463C20.9483 9.47728 21 9.73736 21 10C21 10.2626 20.9483 10.5227 20.8478 10.7654C20.7472 11.008 20.5999 11.2285 20.4142 11.4142C20.2285 11.5999 20.008 11.7472 19.7654 11.8478C19.5227 11.9483 19.2626 12 19 12H12C10.9494 12 9.90914 12.2069 8.93853 12.609C7.96793 13.011 7.08601 13.6003 6.34315 14.3431C5.60028 15.086 5.011 15.9679 4.60896 16.9385C4.20693 17.9091 4 18.9494 4 20V28H12V20H19C20.3132 20 21.6136 19.7413 22.8268 19.2388C24.0401 18.7362 25.1425 17.9997 26.0711 17.0711C26.9997 16.1425 27.7362 15.0401 28.2388 13.8268C28.7413 12.6136 29 11.3132 29 10C29 8.68678 28.7413 7.38642 28.2388 6.17317C27.7362 4.95991 26.9997 3.85752 26.0711 2.92893C25.1425 2.00035 24.0401 1.26375 22.8268 0.761204C21.6136 0.258657 20.3132 0 19 0H9C7.93913 0 6.92172 0.421427 6.17157 1.17157C5.42143 1.92172 5 2.93913 5 4C5 5.06087 5.42143 6.07828 6.17157 6.82843Z" fill="#09738C"/>
<path fill-rule="evenodd" clip-rule="evenodd" d="M4.60896 24.9385C4.20693 25.9091 4 26.9494 4 28C4 28.5253 4.10346 29.0454 4.30448 29.5307C4.5055 30.016 4.80014 30.457 5.17157 30.8284C5.54301 31.1999 5.98396 31.4945 6.46927 31.6955C6.95457 31.8965 7.47471 32 8 32C8.52529 32 9.04543 31.8965 9.53073 31.6955C10.016 31.4945 10.457 31.1999 10.8284 30.8284C11.1999 30.457 11.4945 30.016 11.6955 29.5307C11.8965 29.0454 12 28.5253 12 28V20C10.9494 20 9.90914 20.2069 8.93853 20.609C7.96793 21.011 7.08601 21.6003 6.34315 22.3431C5.60028 23.086 5.011 23.9679 4.60896 24.9385Z" fill="#0C21F8"/>
</svg>
