<svg width="24" height="24" viewBox="0 0 24 24" fill="none" xmlns="http://www.w3.org/2000/svg">
<g clip-path="url(#clip0_54_59)">
<path fill-rule="evenodd" clip-rule="evenodd" d="M23.5772 12.8492C23.9677 12.4587 23.9677 11.8256 23.5772 11.435L19.2843 7.14214C18.9215 6.77937 18.3333 6.77937 17.9706 7.14214C17.6078 7.50491 17.6078 8.09307 17.9706 8.45584L20.7487 11.234C21.1393 11.6245 21.1393 12.2577 20.7487 12.6482L17.8198 15.5772C17.4293 15.9677 17.4293 16.6009 17.8198 16.9914L17.9203 17.0919C18.3108 17.4824 18.944 17.4824 19.3345 17.0919L23.5772 12.8492Z" fill="#040404"/>
<rect x="6" y="11" width="16" height="2" rx="1" fill="#040404"/>
<path fill-rule="evenodd" clip-rule="evenodd" d="M19.7496 2.83787C20.1712 3.19453 20.1687 3.8313 19.7782 4.22182V4.22182C19.3877 4.61235 18.7574 4.60791 18.3298 4.25832C18.0677 4.04403 17.7954 3.84358 17.514 3.65758C16.5723 3.03516 15.5288 2.57459 14.4267 2.29891C14.2693 2.25952 14.1106 2.22392 13.9509 2.19215C12.0111 1.80629 10.0004 2.00433 8.17317 2.7612C6.34591 3.51808 4.78412 4.79981 3.68531 6.4443C2.5865 8.08879 2.00001 10.0222 2.00001 12C2.00001 13.9778 2.58649 15.9112 3.68531 17.5557C4.78412 19.2002 6.34591 20.4819 8.17317 21.2388C10.0004 21.9957 12.0111 22.1937 13.9509 21.8079C15.2286 21.5537 16.4378 21.0538 17.514 20.3424C17.7954 20.1564 18.0677 19.956 18.3298 19.7417C18.7574 19.3921 19.3877 19.3876 19.7782 19.7782V19.7782C20.1687 20.1687 20.1712 20.8055 19.7496 21.1621C19.4922 21.3798 19.2262 21.5862 18.9524 21.7808C17.5788 22.7572 16.0086 23.4377 14.3411 23.7694C12.0133 24.2324 9.60052 23.9948 7.4078 23.0866C5.21509 22.1783 3.34095 20.6402 2.02237 18.6668C0.703793 16.6935 5.6896e-06 14.3734 5.6896e-06 12C5.85819e-06 9.62662 0.703793 7.30655 2.02237 5.33316C3.34095 3.35977 5.21509 1.8217 7.4078 0.913445C9.60052 0.00519327 12.0133 -0.232447 14.3411 0.230576C16.0086 0.562266 17.5788 1.24284 18.9524 2.21918C19.2262 2.4138 19.4922 2.62017 19.7496 2.83787Z" fill="#040404"/>
</g>
<defs>
<clipPath id="clip0_54_59">
<rect width="24" height="24" fill="white"/>
</clipPath>
</defs>
</svg>
