<svg width="24" height="24" viewBox="0 0 24 24" fill="none" xmlns="http://www.w3.org/2000/svg">
<path fill-rule="evenodd" clip-rule="evenodd" d="M11.9167 22C13.2297 22 14.3456 21.1565 14.7523 19.9819C14.933 19.46 15.3644 19 15.9167 19V19C16.469 19 16.9268 19.4521 16.817 19.9934C16.7533 20.3076 16.6594 20.6158 16.5361 20.9134C16.2848 21.52 15.9165 22.0712 15.4522 22.5355C14.9879 22.9998 14.4367 23.3681 13.8301 23.6194C13.2235 23.8707 12.5733 24 11.9167 24C11.2601 24 10.6099 23.8707 10.0033 23.6194C9.39665 23.3681 8.84546 22.9998 8.38116 22.5355C7.91687 22.0712 7.54857 21.52 7.2973 20.9134C7.174 20.6158 7.08007 20.3076 7.01637 19.9934C6.90664 19.4521 7.36441 19 7.9167 19V19C8.46898 19 8.90038 19.46 9.08107 19.9819C9.48775 21.1565 10.6037 22 11.9167 22Z" fill="#040404"/>
<path fill-rule="evenodd" clip-rule="evenodd" d="M19.4453 14.9635C19.1671 14.7781 19 14.4659 19 14.1315V10C19 6.13401 15.866 3 12 3C8.13401 3 5 6.13401 5 10V14.1315C5 14.4658 4.8329 14.7781 4.5547 14.9635L2.74808 16.1679C1.92484 16.7168 2.31337 18 3.30278 18H20.6972C21.6866 18 22.0751 16.7168 21.2519 16.168L19.4453 14.9635Z" fill="#040404"/>
<path fill-rule="evenodd" clip-rule="evenodd" d="M13.7051 2.20914C13.8508 2.24561 14 2.1502 14 2V2C14 0.895431 13.1046 0 12 0C10.8954 0 10 0.895431 10 2V2C10 2.1502 10.1492 2.24561 10.2949 2.20914C10.8407 2.07253 11.4119 2 12 2C12.5881 2 13.1593 2.07253 13.7051 2.20914Z" fill="#040404"/>
</svg>
