<svg width="24" height="24" viewBox="0 0 24 24" fill="none" xmlns="http://www.w3.org/2000/svg">
<path fill-rule="evenodd" clip-rule="evenodd" d="M0 12C0 9.79086 1.79086 8 4 8H20C22.2091 8 24 9.79086 24 12V20C24 22.2091 22.2091 24 20 24H4C1.79086 24 0 22.2091 0 20V12ZM13 16.8293C14.1652 16.4175 15 15.3062 15 14C15 12.3431 13.6569 11 12 11C10.3431 11 9 12.3431 9 14C9 15.3062 9.83481 16.4175 11 16.8293V20C11 20.5523 11.4477 21 12 21C12.5523 21 13 20.5523 13 20V16.8293Z" fill="#040404"/>
<path fill-rule="evenodd" clip-rule="evenodd" d="M6.7039 0.456723C7.43185 0.155195 8.21207 0 9 0H15C15.7879 0 16.5681 0.155195 17.2961 0.456723C18.0241 0.758251 18.6855 1.20021 19.2426 1.75736C19.7998 2.31451 20.2417 2.97595 20.5433 3.7039C20.7169 4.12298 20.842 4.55939 20.9169 5.00462C21.0085 5.54925 20.5523 6 20 6V6C19.4477 6 19.0123 5.5455 18.8756 5.01038C18.8287 4.82636 18.7685 4.64552 18.6955 4.46927C18.4945 3.98396 18.1999 3.54301 17.8284 3.17157C17.457 2.80014 17.016 2.5055 16.5307 2.30448C16.0454 2.10346 15.5253 2 15 2H9C8.47471 2 7.95457 2.10346 7.46927 2.30448C6.98396 2.5055 6.54301 2.80014 6.17157 3.17157C5.80014 3.54301 5.5055 3.98396 5.30448 4.46927C5.23148 4.64552 5.17134 4.82636 5.12435 5.01038C4.98771 5.5455 4.55228 6 4 6V6C3.44772 6 2.99152 5.54925 3.08314 5.00462C3.15804 4.55939 3.28313 4.12298 3.45672 3.7039C3.75825 2.97595 4.20021 2.31451 4.75736 1.75736C5.31451 1.20021 5.97595 0.758251 6.7039 0.456723Z" fill="#040404"/>
</svg>
