<svg width="24" height="24" viewBox="0 0 24 24" fill="none" xmlns="http://www.w3.org/2000/svg">
<g clip-path="url(#clip0_137_19)">
<path fill-rule="evenodd" clip-rule="evenodd" d="M18 10C18 14.4183 14.4183 18 9.99998 18C5.58171 18 1.99998 14.4183 1.99998 10C1.99998 5.58172 5.58171 2 9.99998 2C14.4183 2 18 5.58172 18 10ZM16.3287 17.7429C14.6049 19.1536 12.4013 20 9.99998 20C4.47714 20 -1.53973e-05 15.5228 -1.53551e-05 10C-1.54816e-05 4.47715 4.47714 2.68528e-07 9.99998 3.94969e-07C15.5228 5.77942e-08 20 4.47715 20 10C20 12.4013 19.1536 14.6049 17.7429 16.3287L22.7782 21.364C23.1687 21.7545 23.1687 22.3877 22.7782 22.7782C22.3876 23.1687 21.7545 23.1687 21.364 22.7782L16.3287 17.7429Z" fill="#040404"/>
</g>
<defs>
<clipPath id="clip0_137_19">
<rect width="24" height="24" fill="white"/>
</clipPath>
</defs>
</svg>
