<svg width="24" height="24" viewBox="0 0 24 24" fill="none" xmlns="http://www.w3.org/2000/svg">
<path fill-rule="evenodd" clip-rule="evenodd" d="M11 0C10.4477 0 10 0.447715 10 1V2.42451C10 2.89153 9.6746 3.29066 9.2302 3.43426C8.77019 3.5829 8.32639 3.76756 7.9021 3.98492C7.48644 4.19787 6.97412 4.1457 6.64388 3.81545L5.63604 2.80761C5.24551 2.41709 4.61235 2.41709 4.22182 2.80761L2.80761 4.22183C2.41708 4.61235 2.41708 5.24551 2.80761 5.63604L3.81545 6.64388C4.1457 6.97413 4.19786 7.48644 3.98492 7.9021C3.76756 8.32639 3.5829 8.7702 3.43426 9.2302C3.29066 9.6746 2.89153 10 2.42451 10H1C0.447716 10 0 10.4477 0 11V13C0 13.5523 0.447715 14 1 14H2.42451C2.89153 14 3.29066 14.3254 3.43426 14.7698C3.5829 15.2298 3.76756 15.6736 3.98492 16.0979C4.19786 16.5136 4.14569 17.0259 3.81545 17.3561L2.80761 18.364C2.41708 18.7545 2.41708 19.3876 2.80761 19.7782L4.22182 21.1924C4.61234 21.5829 5.24551 21.5829 5.63603 21.1924L6.64388 20.1845C6.97412 19.8543 7.48643 19.8021 7.9021 20.0151C8.32638 20.2324 8.77019 20.4171 9.2302 20.5657C9.6746 20.7093 10 21.1085 10 21.5755V23C10 23.5523 10.4477 24 11 24H13C13.5523 24 14 23.5523 14 23V21.5755C14 21.1085 14.3254 20.7093 14.7698 20.5657C15.2298 20.4171 15.6736 20.2324 16.0979 20.0151C16.5136 19.8021 17.0259 19.8543 17.3561 20.1845L18.364 21.1924C18.7545 21.5829 19.3877 21.5829 19.7782 21.1924L21.1924 19.7782C21.5829 19.3877 21.5829 18.7545 21.1924 18.364L20.1845 17.3561C19.8543 17.0259 19.8021 16.5136 20.0151 16.0979C20.2324 15.6736 20.4171 15.2298 20.5657 14.7698C20.7093 14.3254 21.1085 14 21.5755 14H23C23.5523 14 24 13.5523 24 13V11C24 10.4477 23.5523 10 23 10H21.5755C21.1085 10 20.7093 9.6746 20.5657 9.2302C20.4171 8.7702 20.2324 8.32639 20.0151 7.90211C19.8021 7.48644 19.8543 6.97413 20.1845 6.64389L21.1924 5.63604C21.5829 5.24551 21.5829 4.61235 21.1924 4.22183L19.7782 2.80761C19.3877 2.41709 18.7545 2.41709 18.364 2.80761L17.3561 3.81546C17.0259 4.1457 16.5136 4.19787 16.0979 3.98492C15.6736 3.76756 15.2298 3.5829 14.7698 3.43426C14.3254 3.29066 14 2.89153 14 2.42451V1C14 0.447716 13.5523 0 13 0H11ZM12 16C14.2091 16 16 14.2091 16 12C16 9.79086 14.2091 8 12 8C9.79086 8 8 9.79086 8 12C8 14.2091 9.79086 16 12 16Z" fill="#F8F8F8"/>
</svg>
