<svg width="24" height="24" viewBox="0 0 24 24" fill="none" xmlns="http://www.w3.org/2000/svg">
<path d="M18 6C18 9.31371 15.3137 12 12 12C8.68629 12 6 9.31371 6 6C6 2.68629 8.68629 0 12 0C15.3137 0 18 2.68629 18 6Z" fill="#F8F8F8"/>
<path d="M20 24C22.2091 24 24.0628 22.1209 23.073 20.1459C22.4759 18.9547 21.602 17.8595 20.4853 16.9289C18.2348 15.0536 15.1826 14 12 14C8.8174 14 5.76516 15.0536 3.51472 16.9289C2.39801 17.8595 1.52412 18.9546 0.927039 20.1459C-0.062824 22.1209 1.79086 24 4 24L12 24H20Z" fill="#F8F8F8"/>
</svg>
