<svg width="24" height="24" viewBox="0 0 24 24" fill="none" xmlns="http://www.w3.org/2000/svg">
<path fill-rule="evenodd" clip-rule="evenodd" d="M20.4632 3.49275C19.6802 2.71373 18.4139 2.71701 17.6348 3.50008L11.9927 9.17158L6.32116 3.52942C5.53809 2.75039 4.27176 2.75368 3.49274 3.53675C2.71372 4.31982 2.717 5.58614 3.50007 6.36517L9.17158 12.0073L3.52941 17.6788C2.75039 18.4619 2.75367 19.7282 3.53674 20.5073C4.31981 21.2863 5.58614 21.283 6.36516 20.4999L12.0073 14.8284L17.6788 20.4706C18.4619 21.2496 19.7282 21.2463 20.5072 20.4633C21.2863 19.6802 21.283 18.4139 20.4999 17.6348L14.8284 11.9927L20.4706 6.32117C21.2496 5.53809 21.2463 4.27177 20.4632 3.49275Z" fill="#040404"/>
</svg>
